<?xml version="1.0"?>
<svg width="46" height="46" xmlns="http://www.w3.org/2000/svg" xmlns:svg="http://www.w3.org/2000/svg">
 <g>
  <title>Layer 1</title>
  <path transform="rotate(-90 23.1924 23.161)" fill="#ffff00" id="svg_1" d="m43.955505,36.230202l-18.369366,-14.104258c-1.546005,-1.187176 -3.556591,-1.187176 -5.094975,0l-18.376987,14.104258c-2.109583,1.621288 -2.680773,4.899277 -1.271842,7.335636c1.408931,2.427498 4.257248,3.083096 6.366827,1.470676l15.825684,-12.15519l15.825668,12.146332c0.784431,0.602432 1.66787,0.885944 2.543697,0.885944c1.485077,0 2.939705,-0.823933 3.830757,-2.356613c1.401306,-2.427509 0.837738,-5.714359 -1.279465,-7.326786zm-36.746338,-12.465267l15.82568,-12.146326l15.825668,12.146326c0.784431,0.602446 1.66787,0.885937 2.543697,0.885937c1.485077,0 2.939705,-0.823914 3.830757,-2.356604c1.408928,-2.427498 0.837738,-5.714359 -1.271851,-7.335639l-18.37698,-14.095409c-1.546005,-1.187176 -3.556591,-1.187176 -5.094975,0l-18.376987,14.10427c-2.109583,1.621288 -2.680773,4.899281 -1.271842,7.335638c1.401312,2.418636 4.257248,3.083096 6.366831,1.461807z"/>
 </g>
</svg>