<?xml version="1.0"?>
<svg width="119" height="119" xmlns="http://www.w3.org/2000/svg" xmlns:svg="http://www.w3.org/2000/svg">
 <g>
  <title>Layer 1</title>
  <path transform="rotate(-90 59.7068 62.4883)" fill="black" id="svg_1" d="m86.970001,77.239998l-24.120003,-15.919998c-2.029999,-1.34 -4.669998,-1.34 -6.689999,0l-24.130001,15.919998c-2.769999,1.830002 -3.519999,5.529999 -1.669998,8.279999c1.849998,2.740005 5.59,3.480003 8.360001,1.660004l20.779999,-13.720001l20.779999,13.709999c1.029999,0.68 2.190002,1 3.340004,1c1.949997,0 3.860001,-0.93 5.029999,-2.659996c1.839996,-2.740005 1.099998,-6.450005 -1.68,-8.270004zm-48.25,-14.07l20.779999,-13.709999l20.779999,13.709999c1.029999,0.68 2.190002,1 3.340004,1c1.949997,0 3.860001,-0.929996 5.029999,-2.66c1.849998,-2.739998 1.099998,-6.449997 -1.669998,-8.279999l-24.130005,-15.91c-2.029999,-1.34 -4.669998,-1.34 -6.689999,0l-24.130001,15.920002c-2.769999,1.829998 -3.519999,5.529999 -1.669998,8.279999c1.84,2.73 5.59,3.48 8.360001,1.649998z"/>
 </g>
</svg>